PERFORMER "DJ Dementia"
TITLE "Glamorous Dementia"
FILE "Glamerous Dementia Full_pn.mp3" MP3
  TRACK 01 AUDIO
    PERFORMER "Love and Rockets"
    TITLE "So Alive"
    INDEX 01 00:00:00
  TRACK 02 AUDIO
    PERFORMER "Nitzer Ebb"
    TITLE "Join In The Chant"
    INDEX 01 04:03:19
  TRACK 03 AUDIO
    PERFORMER "Sisters of Mercy"
    TITLE "Dominion Mother Russia"
    INDEX 01 09:52:70
  TRACK 04 AUDIO
    PERFORMER "Information Society"
    TITLE "What's On Your Mind (Pure Energy)"
    INDEX 01 16:20:21
  TRACK 05 AUDIO
    PERFORMER "Nine Inch Nails"
    TITLE "Down In It Singe"
    INDEX 01 20:17:07
  TRACK 06 AUDIO
    PERFORMER "Iggy Pop"
    TITLE "Lust For Life"
    INDEX 01 27:15:23
  TRACK 07 AUDIO
    PERFORMER "Talking Heads"
    TITLE "Psycho Killer"
    INDEX 01 32:10:67
  TRACK 08 AUDIO
    PERFORMER "Arnaud Rebotini"
    TITLE "Pagan Dance Move"
    INDEX 01 36:16:07
  TRACK 09 AUDIO
    PERFORMER "3TEETH"
    TITLE "Pearls 2 Swine (Mr. Skeleton Remix)"
    INDEX 01 43:11:58
  TRACK 10 AUDIO
    PERFORMER "Front Line Assembly"
    TITLE "Circuitry"
    INDEX 01 47:09:61
  TRACK 11 AUDIO
    PERFORMER "The Cramps"
    TITLE "Bikini Girls with Machine Guns"
    INDEX 01 52:39:14
  TRACK 12 AUDIO
    PERFORMER "DAF"
    TITLE "Als War's Das Letzte Mal"
    INDEX 01 55:42:41
  TRACK 13 AUDIO
    PERFORMER "Fad Gadget"
    TITLE "Collapsing New People"
    INDEX 01 58:55:07
  TRACK 14 AUDIO
    PERFORMER "Louisahhh"
    TITLE "Feral Rhythm"
    INDEX 01 62:57:69
  TRACK 15 AUDIO
    PERFORMER "Radical G, The Horrorist"
    TITLE "Here Comes The Storm Kobosil 44 Terror Mix"
    INDEX 01 66:40:33
  TRACK 16 AUDIO
    PERFORMER "Tones on Tail"
    TITLE "Go!"
    INDEX 01 71:40:73
  TRACK 17 AUDIO
    PERFORMER "Ministry"
    TITLE "We Believe"
    INDEX 01 75:49:25
  TRACK 18 AUDIO
    PERFORMER "VoX LoW"
    TITLE "Something Is Wrong"
    INDEX 01 77:55:03
  TRACK 19 AUDIO
    PERFORMER "Lydia Lunch"
    TITLE "Spooky"
    INDEX 01 83:14:52
  TRACK 20 AUDIO
    PERFORMER "Peter Murphy"
    TITLE "All Night Long"
    INDEX 01 85:38:64
  TRACK 21 AUDIO
    PERFORMER "Killing Joke"
    TITLE "Love Like Blood"
    INDEX 01 91:04:30
  TRACK 22 AUDIO
    PERFORMER "The Cramps"
    TITLE "Strychnine"
    INDEX 01 96:03:19
  TRACK 23 AUDIO
    PERFORMER "The Normal"
    TITLE "Warm Leatherette"
    INDEX 01 98:19:32